<?xml version="1.0" encoding="UTF-8"?>
<svg width="50px" height="50px" viewBox="0 0 50 50" version="1.1" xmlns="http://www.w3.org/2000/svg" xmlns:xlink="http://www.w3.org/1999/xlink">
    <title>ic_camera</title>
    <g id="页面-1" stroke="none" stroke-width="1" fill="none" fill-rule="evenodd">
        <g id="重邮驿站_社区_详情页" transform="translate(-28.000000, -1976.000000)" fill-rule="nonzero">
            <g id="底部备份-2" transform="translate(0.000000, 1952.000000)">
                <g id="编组-17" transform="translate(28.000000, 17.000000)">
                    <g id="编组" transform="translate(0.000000, 7.000000)">
                        <path d="M42.5402102,45 L7.46086211,45 C3.34341338,44.9976332 0.00532208087,41.65549 0,37.5300817 L0,18.8074774 C0.00472718459,14.6833256 3.34038111,11.3412211 7.45657302,11.3364847 L12.3203946,11.3364847 C12.4276217,11.1742587 12.5520051,10.7305544 12.6420759,10.4286635 C12.8372293,9.75612376 13.0795625,8.91813494 13.6285653,8.17253975 L13.726142,8.04039536 C15.1345454,6.13174636 17.3617934,5.00401405 19.73086,5 L29.4509972,5 C31.8560307,5.00286963 34.1127323,6.16518928 35.5146901,8.1231199 C36.0508256,8.87516115 36.2910144,9.70240653 36.48724,10.3727976 C36.5815998,10.695101 36.7231396,11.1796304 36.8346558,11.3397078 C36.8567927,11.3411492 36.8789997,11.3411492 36.9011366,11.3397078 L42.5444992,11.3397078 C46.6602724,11.3450359 49.995274,14.6869674 50,18.8107005 L50,37.5300817 C49.9952689,41.6553163 46.6574848,44.9976322 42.5402102,45 L42.5402102,45 Z M7.46086211,14.0975505 C4.86588666,14.1005108 2.76298028,16.2074838 2.76002573,18.8074774 L2.76002573,37.5300817 C2.76298028,40.1300753 4.86588666,42.2370483 7.46086211,42.2400086 L42.5402102,42.2400086 C45.1351856,42.2370483 47.238092,40.1300753 47.2410465,37.5300817 L47.2410465,18.8074774 C47.238092,16.2074838 45.1351856,14.1005108 42.5402102,14.0975505 L36.8968475,14.0975505 C34.7019086,14.0975505 34.161484,12.2496777 33.8387304,11.1463257 C33.6800343,10.6091534 33.5309886,10.093468 33.2693545,9.7281908 C32.3858645,8.49344988 30.9630385,7.76046711 29.4467081,7.75891706 L19.7297877,7.75891706 C18.2364428,7.76159601 16.8325313,8.47248031 15.9446708,9.67554792 L15.8481664,9.80769231 C15.5897491,10.159003 15.4439202,10.667168 15.2895132,11.1968199 C14.9753378,12.281908 14.4488527,14.0975505 12.278576,14.0975505 L7.46086211,14.0975505 Z" id="形状" fill="#6D6D6D"></path>
                        <path d="M25.0001525,38.6363636 C20.7715205,38.6363636 16.9593133,36.0889648 15.341317,32.1821224 C13.7233207,28.2752799 14.6182075,23.7784652 17.6086555,20.7887244 C20.5991036,17.7989836 25.0961297,16.9051607 29.0025891,18.5240813 C32.9090485,20.1430018 35.4555451,23.9558117 35.4545452,28.1844438 C35.4470489,33.9547372 30.7704473,38.6302328 25.0001525,38.6363636 L25.0001525,38.6363636 Z M25.0001525,20.7235 C20.8812826,20.7235 17.5421483,24.0622568 17.5416818,28.1811267 C17.5412154,32.2999967 20.8795935,35.6395094 24.9984632,35.6404427 C29.117333,35.6413756 32.4572239,32.3033758 32.4586236,28.1845061 C32.4551318,24.0663429 29.1183142,20.7283911 25.0001525,20.7235 L25.0001525,20.7235 Z" id="形状" fill="#0062FF"></path>
                        <path d="M36.0304525,16.6682619 L42.9551791,16.6682619 C43.7872614,16.6682619 44.2033026,17.0851076 44.2033026,17.9187991 L44.2033026,18.3646521 C44.2033026,19.1983436 43.7872614,19.6151893 42.9551791,19.6151893 L36.0304525,19.6151893 C35.1983701,19.6151893 34.782329,19.1983436 34.782329,18.3646521 L34.782329,17.9187991 C34.782329,17.0851076 35.1983701,16.6682619 36.0304525,16.6682619 Z" id="路径" fill="#6D6D6D"></path>
                    </g>
                </g>
            </g>
        </g>
    </g>
</svg>